#!OML:ASF F:\VICON\USERDATA\INSTALL\rory3\rory3.ASF
:FULLY-SPECIFIED
:DEGREES
4459
root -2.94483 17.5469 0.391927 -172.335 -61.0375 -191.45
lowerback 11.4411 1.30075 -1.30988
upperback 1.5486 1.50788 0.438205
thorax -4.84006 0.736903 0.966321
lowerneck -17.2244 5.82428 -7.67731
upperneck 40.6774 8.94138 1.96455
head 17.3687 1.96164 3.70663
rclavicle -7.4743e-014 7.95139e-015
rhumerus -36.4909 -16.2444 -77.5016
rradius 34.7491
rwrist 5.76205
rhand -20.7389 12.4608
rfingers 7.12502
rthumb 5.62643 -17.4445
lclavicle -7.4743e-014 7.95139e-015
lhumerus -27.2029 0.374573 83.8609
lradius 32.574
lwrist -1.26476
lhand -21.2917 22.9514
lfingers 7.12502
lthumb 5.09267 52.8702
rfemur -12.9171 -2.54062 19.8385
rtibia 44.5217
rfoot -22.0135 0.419643
rtoes 1.59649
lfemur -4.83181 -0.275066 -24.9907
ltibia 29.2416
lfoot -15.471 -6.1106
ltoes -9.08981
4460
root -2.97977 17.5413 0.413491 -172.686 -60.9716 -191.224
lowerback 11.5221 1.32093 -1.05999
upperback 1.57443 1.55964 0.374468
thorax -4.8508 0.756503 0.749698
lowerneck -17.2469 5.84421 -7.73636
upperneck 40.822 8.97918 1.98588
head 17.448 1.95344 3.73884
rclavicle -7.35503e-015 2.38542e-015
rhumerus -36.4482 -16.4776 -77.589
rradius 34.6394
rwrist 5.93342
rhand -20.6983 12.3079
rfingers 7.12502
rthumb 5.66566 -17.5964
lclavicle -7.35503e-015 2.38542e-015
lhumerus -27.0993 0.369605 83.6874
lradius 32.3274
lwrist -1.47053
lhand -21.5458 22.6911
lfingers 7.12502
lthumb 4.84737 52.6157
rfemur -12.4773 -2.57818 20.1299
rtibia 44.1744
rfoot -21.5765 -0.430621
rtoes 3.51463
lfemur -4.99259 0.234344 -24.9479
ltibia 29.9027
lfoot -15.4916 -6.42202
ltoes -9.68283
4461
root -3.01538 17.5478 0.433398 -173.156 -60.8626 -190.894
lowerback 11.6102 1.37984 -0.827815
upperback 1.6222 1.66288 0.367436
thorax -4.84495 0.801734 0.594292
lowerneck -17.1654 5.87132 -7.77458
upperneck 40.8837 9.02551 1.96246
head 17.4585 1.95549 3.74013
rclavicle -2.70347e-014 -1.27222e-014
rhumerus -36.4607 -16.8462 -77.5577
rradius 34.5986
rwrist 6.01477
rhand -20.7837 12.4229
rfingers 7.12502
rthumb 5.58317 -17.4835
lclavicle -2.70347e-014 -1.27222e-014
lhumerus -27.0811 0.361955 83.6126
lradius 32.2681
lwrist -1.38777
lhand -21.7245 22.69
lfingers 7.12502
lthumb 4.67478 52.6185
rfemur -12.0602 -2.4663 20.4294
rtibia 43.818
rfoot -21.1918 -0.727657
rtoes 6.57279
lfemur -5.11187 0.82808 -24.8469
ltibia 30.6228
lfoot -15.674 -6.64676
ltoes -11.0558
4462
root -3.05145 17.5496 0.452794 -173.455 -60.7402 -190.724
lowerback 11.6296 1.44526 -0.706554
upperback 1.67833 1.76205 0.364589
thorax -4.79485 0.847117 0.507924
lowerneck -17.1784 5.95271 -7.77841
upperneck 41.0311 9.17189 1.90541
head 17.5404 1.98836 3.74653
rclavicle -1.30204e-014 -8.74653e-015
rhumerus -36.4178 -17.2152 -77.4714
rradius 34.5166
rwrist 6.287
rhand -20.6946 12.4713
rfingers 7.12502
rthumb 5.66926 -17.4328
lclavicle -1.30204e-014 -8.74653e-015
lhumerus -27.0852 0.626258 83.5602
lradius 32.2215
lwrist -1.5455
lhand -21.7765 22.7316
lfingers 7.12502
lthumb 4.62461 52.6611
rfemur -11.6274 -2.25362 20.5771
rtibia 43.4312
rfoot -21.2617 -1.33082
rtoes 7.65139
lfemur -5.25841 1.05595 -24.8577
ltibia 31.4179
lfoot -15.6574 -6.86575
ltoes -10.7805
4463
root -3.08362 17.5396 0.474631 -173.637 -60.664 -190.709
lowerback 11.7239 1.43641 -0.611591
upperback 1.73114 1.75615 0.321688
thorax -4.78739 0.840676 0.409251
lowerneck -17.2535 6.06685 -7.76707
upperneck 41.1625 9.39421 1.8009
head 17.6302 2.04699 3.74475
rclavicle 2.94201e-014 2.38542e-015
rhumerus -36.1797 -17.141 -77.5787
rradius 34.3419
rwrist 6.44775
rhand -20.6233 12.3229
rfingers 7.12502
rthumb 5.73807 -17.5794
lclavicle 2.94201e-014 2.38542e-015
lhumerus -27.0634 1.09815 83.4087
lradius 32.1501
lwrist -1.81215
lhand -21.7217 22.8181
lfingers 7.12502
lthumb 4.6775 52.7465
rfemur -11.1705 -2.01658 20.5279
rtibia 43.0461
rfoot -21.6542 -1.91642
rtoes 7.55806
lfemur -5.47024 1.22517 -24.9175
ltibia 32.3219
lfoot -15.3923 -7.41745
ltoes -8.88025
4464
root -3.10945 17.5294 0.497675 -173.671 -60.495 -190.834
lowerback 11.9009 1.44704 -0.584909
upperback 1.72837 1.76681 0.244905
thorax -4.88518 0.844121 0.308196
lowerneck -17.0919 6.08774 -7.80321
upperneck 41.1356 9.43631 1.72247
head 17.5755 2.04735 3.71115
rclavicle 3.26007e-014 -3.18055e-014
rhumerus -35.9192 -16.8043 -77.7692
rradius 34.0005
rwrist 6.29027
rhand -20.741 12.2013
rfingers 7.12502
rthumb 5.62441 -17.704
lclavicle 3.26007e-014 -3.18055e-014
lhumerus -27.0906 1.61648 83.2103
lradius 32.0511
lwrist -2.21808
lhand -21.7307 23.0334
lfingers 7.12502
lthumb 4.66885 52.9619
rfemur -10.7642 -1.55248 20.3825
rtibia 42.6755
rfoot -21.9747 -2.54532
rtoes 6.58097
lfemur -5.82848 1.73578 -25.0219
ltibia 33.3822
lfoot -15.1476 -7.92021
ltoes -8.58431
4465
root -3.12969 17.5229 0.526717 -173.637 -60.3315 -190.966
lowerback 12.0803 1.47172 -0.541381
upperback 1.71644 1.79825 0.162442
thorax -4.99333 0.85753 0.187984
lowerneck -16.9437 6.06613 -7.81132
upperneck 41.0588 9.41567 1.62628
head 17.5046 2.0302 3.65354
rclavicle -1.82882e-014 -3.18055e-015
rhumerus -35.6865 -16.6494 -77.9051
rradius 33.7413
rwrist 6.02368
rhand -20.8404 12.1923
rfingers 7.12502
rthumb 5.52849 -17.7156
lclavicle -1.82882e-014 -3.18055e-015
lhumerus -27.1074 2.23849 83.0048
lradius 31.9185
lwrist -2.87623
lhand -21.5831 22.9493
lfingers 7.12502
lthumb 4.81136 52.8746
rfemur -10.4824 -1.22583 20.1863
rtibia 42.3187
rfoot -21.9658 -2.70014
rtoes 5.31391
lfemur -6.37964 2.14871 -25.1358
ltibia 34.5397
lfoot -14.6447 -8.43293
ltoes -7.37102
4466
root -3.15342 17.5211 0.569156 -174.195 -60.2277 -190.361
lowerback 12.2165 1.42232 0.0105219
upperback 1.71821 1.8048 0.194431
thorax -5.05059 0.850028 -0.0936868
lowerneck -16.9606 6.10877 -7.97746
upperneck 41.0809 9.52959 1.65538
head 17.5001 2.05143 3.71479
rclavicle 4.21423e-014 -1.43125e-014
rhumerus -35.4273 -16.6167 -77.9072
rradius 33.5591
rwrist 6.07555
rhand -20.9355 12.1762
rfingers 7.12502
rthumb 5.43662 -17.734
lclavicle 4.21423e-014 -1.43125e-014
lhumerus -27.1886 2.77844 82.9908
lradius 31.9998
lwrist -2.85819
lhand -22.0113 23.2093
lfingers 7.12502
lthumb 4.39787 53.1436
rfemur -10.2909 -1.20678 20.2495
rtibia 41.9712
rfoot -21.8081 -2.24705
rtoes 4.6424
lfemur -7.03924 2.40542 -24.9058
ltibia 35.7168
lfoot -13.9857 -8.90444
ltoes -5.96426
4467
root -3.18477 17.5309 0.597639 -174.769 -60.1406 -189.802
lowerback 12.2636 1.38623 0.445546
upperback 1.75795 1.81435 0.242482
thorax -5.02263 0.846133 -0.290437
lowerneck -16.989 6.18126 -8.09551
upperneck 41.1604 9.68506 1.65245
head 17.5343 2.08502 3.76352
rclavicle -3.68746e-014 -7.15625e-015
rhumerus -35.1769 -16.6184 -77.8538
rradius 33.3658
rwrist 6.18776
rhand -20.8556 12.1246
rfingers 7.12502
rthumb 5.51378 -17.7837
lclavicle -3.68746e-014 -7.15625e-015
lhumerus -27.3417 3.00183 83.1151
lradius 32.2825
lwrist -1.90293
lhand -22.9365 23.9004
lfingers 7.12502
lthumb 3.50443 53.8513
rfemur -9.92998 -1.21851 20.2521
rtibia 41.5922
rfoot -21.9589 -1.52722
rtoes 6.06371
lfemur -7.55695 2.72779 -24.6538
ltibia 36.8954
lfoot -13.6022 -9.30534
ltoes -6.78865
4468
root -3.22012 17.5339 0.624426 -174.893 -60.1608 -189.861
lowerback 12.3689 1.37766 0.645141
upperback 1.80363 1.82342 0.180348
thorax -5.02438 0.845247 -0.471157
lowerneck -16.9975 6.20417 -8.03652
upperneck 41.2455 9.74546 1.53245
head 17.5981 2.0887 3.71361
rclavicle 4.60187e-014 -4.05521e-014
rhumerus -35.0855 -16.7658 -77.7511
rradius 33.3048
rwrist 6.14843
rhand -20.7503 12.0301
rfingers 7.12502
rthumb 5.61548 -17.8755
lclavicle 4.60187e-014 -4.05521e-014
lhumerus -27.4494 3.57892 83.1189
lradius 32.3571
lwrist -1.6923
lhand -23.3407 24.4012
lfingers 7.12502
lthumb 3.11408 54.3582
rfemur -9.42764 -1.41611 19.8721
rtibia 41.1521
rfoot -22.2123 -0.70387
rtoes 7.10913
lfemur -8.01502 2.96209 -24.7266
ltibia 38.1334
lfoot -13.1531 -9.80685
ltoes -7.23455
4469
root -3.2498 17.5389 0.647791 -175.269 -60.1454 -189.6
lowerback 12.5052 1.40128 0.851754
upperback 1.82138 1.88313 0.216673
thorax -5.07485 0.869791 -0.562527
lowerneck -16.9672 6.2152 -7.99358
upperneck 41.2796 9.78774 1.41688
head 17.6226 2.09002 3.6611
rclavicle -1.39149e-014 1.82882e-014
rhumerus -35.0483 -16.9148 -77.5518
rradius 33.2257
rwrist 6.29624
rhand -20.6432 12.1621
rfingers 7.12502
rthumb 5.71883 -17.7407
lclavicle -1.39149e-014 1.82882e-014
lhumerus -27.5403 4.38707 83.0741
lradius 32.267
lwrist -2.1323
lhand -23.1136 24.4479
lfingers 7.12502
lthumb 3.33335 54.4016
rfemur -8.98402 -1.49642 19.7313
rtibia 40.6658
rfoot -22.3132 -0.00921597
rtoes 7.29692
lfemur -8.53944 3.34865 -24.5563
ltibia 39.3874
lfoot -12.5288 -10.6171
ltoes -6.8971
4470
root -3.27526 17.5455 0.670353 -175.892 -60.1334 -188.95
lowerback 12.5497 1.40245 1.17203
upperback 1.84534 1.93156 0.318468
thorax -5.06627 0.88775 -0.645069
lowerneck -16.9037 6.23498 -7.93802
upperneck 41.2268 9.85302 1.25939
head 17.5924 2.10659 3.58656
rclavicle 3.85642e-014 -1.19271e-014
rhumerus -34.9039 -16.9463 -77.4269
rradius 33.1413
rwrist 6.37471
rhand -20.7015 12.1703
rfingers 7.12502
rthumb 5.66255 -17.734
lclavicle 3.85642e-014 -1.19271e-014
lhumerus -27.5806 5.05132 83.0095
lradius 32.2153
lwrist -2.11044
lhand -22.7449 24.3202
lfingers 7.12502
lthumb 3.68945 54.268
rfemur -8.63022 -1.60414 19.8459
rtibia 40.1707
rfoot -22.4587 0.559617
rtoes 6.38296
lfemur -9.20481 3.74923 -24.1289
ltibia 40.6617
lfoot -11.679 -11.5622
ltoes -6.2942
4471
root -3.30022 17.5477 0.695444 -176.435 -60.1341 -188.335
lowerback 12.5434 1.39512 1.46216
upperback 1.85512 1.96552 0.42924
thorax -5.04587 0.899702 -0.697709
lowerneck -16.909 6.22768 -7.90097
upperneck 41.2669 9.88955 1.10134
head 17.6352 2.09585 3.51686
rclavicle -1.50082e-014 -1.03368e-014
rhumerus -34.7673 -16.8224 -77.328
rradius 33.2086
rwrist 6.06525
rhand -20.9686 11.8991
rfingers 7.12502
rthumb 5.40469 -18.012
lclavicle -1.50082e-014 -1.03368e-014
lhumerus -27.5761 5.77234 82.9548
lradius 32.1097
lwrist -1.98832
lhand -22.2944 24.1708
lfingers 7.12502
lthumb 4.1245 54.1106
rfemur -8.27274 -1.75253 19.9731
rtibia 39.6335
rfoot -22.6119 0.624943
rtoes 3.96173
lfemur -9.98361 4.06776 -23.7069
ltibia 41.9822
lfoot -10.5602 -12.5696
ltoes -5.4534
4472
root -3.32659 17.5588 0.717559 -176.959 -60.0777 -187.767
lowerback 12.5884 1.41474 1.65746
upperback 1.84037 2.02572 0.569574
thorax -5.08332 0.925858 -0.672135
lowerneck -16.8689 6.22349 -7.87272
upperneck 41.2809 9.91922 0.96239
head 17.6488 2.08761 3.45246
rclavicle -1.98785e-016 -2.38542e-014
rhumerus -34.7668 -16.5079 -77.1887
rradius 33.3456
rwrist 5.61626
rhand -21.125 11.7672
rfingers 7.12502
rthumb 5.25362 -18.1477
lclavicle -1.98785e-016 -2.38542e-014
lhumerus -27.6974 6.25985 83.0744
lradius 32.0596
lwrist -2.02137
lhand -22.3207 24.3451
lfingers 7.12502
lthumb 4.09908 54.2854
rfemur -7.88589 -1.93386 20.0976
rtibia 39.0341
rfoot -22.655 0.640177
rtoes 2.59557
lfemur -10.7409 4.49226 -23.2545
ltibia 43.3202
lfoot -9.29393 -13.7322
ltoes -4.21745
4473
root -3.35193 17.5735 0.738465 -177.776 -60.0407 -186.88
lowerback 12.6948 1.43843 2.04583
upperback 1.81852 2.11835 0.704205
thorax -5.15394 0.963339 -0.76833
lowerneck -16.8766 6.19004 -7.79484
upperneck 41.3028 9.88306 0.857206
head 17.6831 2.06535 3.38702
rclavicle -2.24627e-014 1.82882e-014
rhumerus -34.7998 -16.4967 -77.0133
rradius 33.4071
rwrist 5.55233
rhand -21.1472 11.7839
rfingers 7.12502
rthumb 5.23223 -18.1315
lclavicle -2.24627e-014 1.82882e-014
lhumerus -27.8136 6.72667 83.1487
lradius 32.0013
lwrist -1.94727
lhand -22.4165 24.2612
lfingers 7.12502
lthumb 4.00653 54.2033
rfemur -7.47622 -2.23678 20.406
rtibia 38.3718
rfoot -22.5765 0.840957
rtoes 2.48508
lfemur -11.4843 4.84655 -22.5817
ltibia 44.6693
lfoot -8.01192 -14.8301
ltoes -2.93853
